<?xml version="1.0" standalone="no"?>
<!DOCTYPE svg PUBLIC "-//W3C//DTD SVG 20010904//EN"
 "http://www.w3.org/TR/2001/REC-SVG-20010904/DTD/svg10.dtd">
<svg version="1.0" xmlns="http://www.w3.org/2000/svg"
 width="1112.000000pt" height="1112.000000pt" viewBox="0 0 1112.000000 1112.000000"
 preserveAspectRatio="xMidYMid meet">

<g transform="translate(0.000000,1112.000000) scale(0.100000,-0.100000)"
fill="#000000" stroke="none">
<path d="M5255 10653 c-27 -2 -132 -12 -232 -23 -1186 -131 -2283 -670 -3121
-1534 -535 -553 -929 -1198 -1177 -1928 -356 -1046 -363 -2202 -22 -3248 202
-617 534 -1216 948 -1709 l35 -43 180 40 c186 42 358 73 504 92 148 19 145 7
35 121 -916 955 -1356 2217 -1230 3524 130 1333 846 2528 1960 3270 602 401
1232 630 1985 722 206 25 754 25 960 0 80 -10 160 -20 178 -24 l34 -6 -93 124
c-139 187 -349 510 -390 602 l-12 27 -246 -2 c-135 -1 -268 -3 -296 -5z"/>
<path d="M8270 10112 c-151 -51 -505 -220 -1510 -720 -770 -384 -830 -416
-896 -476 -80 -71 -100 -120 -114 -266 -9 -90 -14 -911 -20 -2905 -4 -1529
-10 -2791 -14 -2805 -3 -14 -10 -49 -16 -79 -19 -111 -141 -320 -254 -440
-109 -114 -221 -181 -360 -216 -75 -19 -250 -17 -395 4 -195 28 -412 195 -512
393 -36 72 -38 103 -6 94 49 -15 109 -17 277 -8 160 8 182 12 255 40 245 96
417 268 532 533 49 114 63 191 63 360 0 174 -18 258 -84 394 -63 127 -118 209
-200 293 -132 137 -272 224 -461 288 -105 35 -118 37 -271 42 -259 7 -420 -29
-656 -150 -256 -130 -449 -341 -611 -664 -125 -250 -174 -444 -192 -764 -37
-632 271 -1254 827 -1667 207 -154 585 -315 838 -357 448 -75 864 -19 1291
174 358 161 598 355 839 675 257 342 397 672 420 990 16 218 22 802 29 2975
l6 2085 43 81 c23 45 64 102 90 129 48 49 33 40 777 406 269 132 373 207 430
311 l30 53 3 576 3 577 -23 27 c-30 35 -86 41 -158 17z"/>
<path d="M9350 7913 c0 -2 32 -56 70 -120 279 -463 482 -1020 569 -1563 42
-259 54 -424 54 -720 0 -400 -34 -692 -123 -1055 -173 -703 -504 -1336 -987
-1885 -382 -434 -878 -810 -1398 -1061 -263 -126 -609 -251 -873 -314 -41 -10
-70 -21 -65 -25 4 -4 77 -65 161 -135 85 -70 220 -192 302 -271 l148 -144 108
39 c766 275 1408 687 1974 1267 394 403 682 813 936 1327 499 1012 646 2163
419 3292 -76 378 -211 792 -368 1127 l-44 94 -109 13 c-234 28 -450 65 -666
114 -60 13 -108 22 -108 20z"/>
</g>
</svg>
